D:\school\WTK\thesis\model\3dpredictsim\Results\debug_batch\Pog_s1_tmt_bCst_d05_k500_ig24_act_TTC_GRF.mot
nRows=10
nColumns=19

name D:\school\WTK\thesis\model\3dpredictsim\Results\debug_batch\Pog_s1_tmt_bCst_d05_k500_ig24_act_TTC_GRF.mot
datacolumns 19
datarows 10
range 0.6293448963 0.7426269776
endheader
time 	ground_force_vx	ground_force_vy	ground_force_vz	ground_force_px	ground_force_py	ground_force_pz	1_ground_force_vx	1_ground_force_vy	1_ground_force_vz	1_ground_force_px	1_ground_force_py	1_ground_force_pz	ground_torque_x	ground_torque_y	ground_torque_z	1_ground_torque_x	1_ground_torque_y	1_ground_torque_z
        0.6293448963	       77.9095303036	      335.6208601085	        5.2171265448	        0.4152010101	        0.0000000000	        0.0295434548	      -77.7512661490	       68.7050908062	      -22.3224234860	        0.9776277880	        0.0000000000	       -0.0517779145	        0.0000000000	        0.0000000000	        0.0000000000	        0.0000000000	        0.0000000000	        0.0000000000	
        0.6419317942	       41.7363076192	      223.3505923633	       15.3584545582	        0.4289876080	        0.0000000000	        0.0237413960	     -107.1100210738	      213.0083639486	      -44.2579257310	        0.9839855532	        0.0000000000	       -0.0502392916	        0.0000000000	        0.0000000000	        0.0000000000	        0.0000000000	        0.0000000000	        0.0000000000	
        0.6545186922	       23.9855080870	      175.1594284515	       18.4151762887	        0.4338090170	        0.0000000000	        0.0214343449	      -71.3693135615	      465.0143279746	       -3.4469035834	        0.9883770651	        0.0000000000	       -0.0492695405	        0.0000000000	        0.0000000000	        0.0000000000	        0.0000000000	        0.0000000000	        0.0000000000	
        0.6671055901	       18.2532982714	      131.2295013955	       19.0233748147	        0.4341096662	        0.0000000000	        0.0215638312	      -99.7168432163	      723.9886882994	       17.3293966117	        0.9973666151	        0.0000000000	       -0.0508030022	        0.0000000000	        0.0000000000	        0.0000000000	        0.0000000000	        0.0000000000	        0.0000000000	
        0.6796924880	        4.5268241564	       75.7606718916	       16.9179758171	        0.4339179661	        0.0000000000	        0.0218111577	     -147.9754228226	      904.0548723010	       22.9774089629	        1.0064853446	        0.0000000000	       -0.0527700557	        0.0000000000	        0.0000000000	        0.0000000000	        0.0000000000	        0.0000000000	        0.0000000000	
        0.6922793859	       -9.7697772022	       14.9317620150	        4.1263755709	        0.4299583585	        0.0000000000	        0.0214601484	     -160.9915077470	      942.2084120638	       23.4622848872	        1.0121220311	        0.0000000000	       -0.0538080378	        0.0000000000	        0.0000000000	        0.0000000000	        0.0000000000	        0.0000000000	        0.0000000000	
        0.7048662839	        0.4888337605	       -0.3958531016	        0.0248401813	        0.0000000000	        0.0000000000	        0.0000000000	     -145.5628003455	      903.6026393402	       22.2401860285	        1.0162589723	        0.0000000000	       -0.0543489859	        0.0000000000	        0.0000000000	        0.0000000000	        0.0000000000	        0.0000000000	        0.0000000000	
        0.7174531818	       -6.3885215223	        4.5266272420	       -0.4301521145	        0.0000000000	        0.0000000000	        0.0000000000	     -129.1359079503	      838.0739093181	       20.0552226528	        1.0203869241	        0.0000000000	       -0.0545347406	        0.0000000000	        0.0000000000	        0.0000000000	        0.0000000000	        0.0000000000	        0.0000000000	
        0.7300400797	       -4.9923459315	        3.0978993111	       -0.4215631533	        0.0000000000	        0.0000000000	        0.0000000000	     -113.7933176964	      785.4587628516	       18.5435013848	        1.0247188976	        0.0000000000	       -0.0544367984	        0.0000000000	        0.0000000000	        0.0000000000	        0.0000000000	        0.0000000000	        0.0000000000	
        0.7426269776	       -3.1152480713	        1.7699271344	       -0.2723238158	        0.0000000000	        0.0000000000	        0.0000000000	     -101.4651112124	      747.2824648666	       18.3259355497	        1.0297352053	        0.0000000000	       -0.0541195411	        0.0000000000	        0.0000000000	        0.0000000000	        0.0000000000	        0.0000000000	        0.0000000000	
